<svg width="320" height="320" viewBox="0 0 320 320" fill="none" xmlns="http://www.w3.org/2000/svg">
  <rect width="320" height="320" rx="72" fill="#0A1628"/>
  <circle cx="160" cy="160" r="114" fill="url(#paint0_radial)" fill-opacity="0.25"/>
  <path d="M66 191.5C109.6 184.3 150.4 168 188.4 142.4C173.8 148.9 159.6 148.8 145.8 142.2C169.2 125.3 193.7 117.2 219.4 117.9C213.1 126.1 209 134.2 207 142.2C224.2 138.4 240.4 132.3 255.6 123.8C246.1 140.4 233.4 154.6 217.6 166.5C195.3 183.4 169.8 195 141.2 201.2C113.3 207.3 88.2 208.8 66 205.7V191.5Z" fill="#3BBFB0"/>
  <path d="M205.4 115.5C190.3 113.6 176.5 117.7 164 127.8C171.5 128.8 178.5 131.2 184.9 135.1C191.2 138.9 196.8 143.8 201.6 149.8C202.2 138.2 203.5 126.8 205.4 115.5Z" fill="#5DD6C8"/>
  <circle cx="220" cy="113" r="5.5" fill="#E8F0F5"/>
  <defs>
    <radialGradient id="paint0_radial" cx="0" cy="0" r="1" gradientUnits="userSpaceOnUse" gradientTransform="translate(170 144) rotate(90) scale(145)">
      <stop stop-color="#3BBFB0"/>
      <stop offset="1" stop-color="#3BBFB0" stop-opacity="0"/>
    </radialGradient>
  </defs>
</svg>
